<?xml version="1.0" encoding="UTF-8" standalone="no"?>
<svg
   width="557.90277"
   height="612.72296"
   viewBox="0 0 557.90277 612.72296"
   fill="none"
   version="1.1"
   id="svg3"
   sodipodi:docname="favicon.svg"
   inkscape:version="1.4 (e7c3feb1, 2024-10-09)"
   xmlns:inkscape="http://www.inkscape.org/namespaces/inkscape"
   xmlns:sodipodi="http://sodipodi.sourceforge.net/DTD/sodipodi-0.dtd"
   xmlns="http://www.w3.org/2000/svg"
   xmlns:svg="http://www.w3.org/2000/svg">
  <sodipodi:namedview
     id="namedview3"
     pagecolor="#ffffff"
     bordercolor="#000000"
     borderopacity="0.25"
     inkscape:showpageshadow="2"
     inkscape:pageopacity="0.0"
     inkscape:pagecheckerboard="0"
     inkscape:deskcolor="#d1d1d1"
     inkscape:zoom="0.61273699"
     inkscape:cx="271.7316"
     inkscape:cy="270.09957"
     inkscape:window-width="1440"
     inkscape:window-height="900"
     inkscape:window-x="0"
     inkscape:window-y="0"
     inkscape:window-maximized="0"
     inkscape:current-layer="svg3" />
  <path
     fill="url(#a)"
     d="m 312.28836,487.97891 c -7.091,7.606 -13.857,14.982 -20.779,22.202 -9.225,9.623 -18.385,19.325 -27.908,28.634 -15.171,14.831 -30.146,29.929 -46.085,43.864 -15.424,13.485 -33.598,22.562 -53.496,26.874 -18.029,3.908 -36.09,4.499 -54.553,0.097 -17.531,-4.18 -33.845,-10.359 -48.526,-20.774 -22.515,-15.972 -40.027,-36.254 -50.314,-62.563 -2.3029997,-5.89 -5.6819997,-11.437 -7.2759997,-17.496 -1.902,-7.231 -3.32700001,-14.84 -3.34200001,-22.29 -0.032,-15.412 -0.092,-30.976 1.90800001,-46.198 2.048,-15.582 7.605,-30.405 15.0389997,-44.404 7.174,-13.51 15.886,-25.64 26.842,-36.267 9.098,-8.824 17.219,-18.693 26.253,-27.59 14.283,-14.065 28.839,-27.851 43.543,-41.457 6.437,-5.958 12.99,-12.138 20.452,-16.502 9.683,-5.662 20.019,-10.575 30.619,-14.103 22.936,-7.635 46.789,-8.021 70.635,-6.689 4.76,0.266 7.482,-1.803 10.251,-5.118 9.332,-11.175 18.616,-22.403 28.312,-33.244 8.46,-9.458 17.098,-18.813 26.325,-27.472 a 159.677,159.677 0 0 1 22.716,-17.739 c 10.458,-6.733 21.294,-13.008 32.477,-18.372 12.809,-6.144 26.012,-11.55 39.353,-16.386 11.839,-4.291 24.08,-7.439 36.192,-10.912 2.807,-0.804 5.803,-1.033 8.732,-1.249 3.292,-0.243 5.473,3.959 4.806,8.418 -1.988,13.292 -3.537,26.661 -5.887,39.884 a 156.29,156.29 0 0 1 -6.215,23.854 c -4.318,12.427 -8.976,24.769 -14.251,36.801 -3.885,8.859 -8.416,17.548 -13.669,25.629 -8.402,12.924 -17.074,25.756 -26.692,37.74 -9.099,11.337 -19.087,22.059 -29.627,32.009 -5.352,5.052 -6.186,9.921 -5.221,16.453 0.735,4.971 0.875,10.075 0.837,15.117 -0.105,14.092 0.108,28.219 -0.816,42.263 -1.301,19.758 -5.63,38.988 -14.013,56.926 -4.788,10.245 -10.867,19.861 -16.622,30.06 z m -111.964,-45.96 c -11.601,7.668 -22.723,16.283 -34.941,22.732 -11.637,6.142 -24.365,10.167 -36.723,14.819 -4.281,1.612 -7.391,-1.563 -6.069,-5.834 4.002,-12.929 7.115,-26.282 12.509,-38.587 5.415,-12.351 11.89,-24.695 20.212,-35.119 9.449,-11.836 21.462,-21.538 32.182,-31.995 -1.667,-1.391 -4.644,-3.224 -6.681,-5.823 -1.216,-1.552 -1.958,-4.781 -1.201,-6.445 4.877,-10.726 10.234,-21.226 15.418,-31.808 1.028,-2.098 1.985,-4.232 3.632,-7.757 -10.034,0.944 -18.71,1.233 -27.192,2.697 -9.742,1.682 -17.073,8.161 -23.954,14.954 -22.34,22.057 -44.657,44.138 -66.896,66.301 -9.338,9.307 -16.19,20.656 -20.527,32.909 -6.025,17.021 -8.07,34.674 -4.76,53.057 4.075,22.631 14.414,41.187 32.423,54.377 16.04,11.748 34.488,16.927 54.635,14.449 12.33,-1.516 23.821,-5.276 33.807,-12.701 6.356,-4.727 12.02,-10.471 17.741,-16.031 10.442,-10.15 20.656,-20.545 31.041,-30.758 10.587,-10.414 21.373,-20.619 31.857,-31.139 5.218,-5.238 10.436,-10.608 14.809,-16.565 9.504,-12.946 11.145,-28.101 9.97,-43.656 -0.391,-5.166 -2.005,-10.235 -3.061,-15.354 -3.445,1.956 -5.94,3.106 -8.151,4.675 -9.303,6.602 -18.464,13.415 -27.797,19.972 -4.091,2.874 -8.192,3.263 -11.606,-1.399 -1.49,-2.035 -3.148,-3.941 -4.3,-5.372 -6.718,9.632 -12.961,18.73 -19.383,27.695 -1.863,2.6 -4.24,4.816 -6.994,7.706 z"
     id="path1"
     style="fill:url(#a)" />
  <path
     fill="#46b5d1"
     d="m 267.67836,84.906907 c 10.004,-10.341 19.577,-20.62 29.511,-30.505 9.765,-9.718 19.091,-20.242 30.078,-28.211 12.599,-9.139 26.72,-15.929 41.8,-20.2779997 16.995,-4.9 34.186,-6.921 51.701,-5.434 20.429,1.734 39.948,7.185 58.094,17.2759997 21.48,11.945 39.245,28.35 53.177,49.214 10.225,15.312 17.289,32.203 21.705,50.155003 2.124,8.635 2.659,17.728 3.551,26.653 1.5,15.029 0.139,30.017 -3.169,44.571 -3.275,14.409 -8.429,28.282 -16.169,40.926 -15.027,24.546 -36.251,43.238 -55.425,63.857 -10.381,11.162 -21.02,22.064 -31.597,33.025 -10.213,10.584 -20.109,21.549 -30.856,31.511 -10.928,10.13 -24.288,16.309 -37.92,21.501 -4.905,1.868 -10.23,2.665 -15.426,3.547 -7.952,1.349 -9.112,0.103 -8.817,-8.223 0.344,-9.735 0.73,-19.471 0.874,-29.209 0.051,-3.439 -0.724,-6.884 -0.819,-10.335 -0.107,-3.897 2.062,-5.678 5.536,-7.152 8.72,-3.699 18.004,-6.862 25.527,-12.476 8.384,-6.257 15.159,-14.897 22.481,-22.657 10.357,-10.979 20.454,-22.228 30.884,-33.132 a 1795.76,1795.76 0 0 1 33.651,-34.281 c 16.024,-15.879 25.918,-35.091 29.745,-57.75 0.058,-0.342 0.073,-0.696 0.069,-1.044 -0.173,-14.831 0.983,-29.653 -3.864,-44.198 -9.01,-27.033003 -24.906,-47.658003 -49.652,-60.336003 -16.555,-8.481 -34.072,-10.906 -52.51,-9.162 -19.723,1.866 -36.584,10.18 -51.485,22.914 -8.866,7.577 -16.542,16.665 -24.779,25.045003 -7.945,8.083 -16.023,16.026 -23.862,24.217 -10.267,10.729 -20.568,21.437 -30.445,32.549 -6.07,6.83 -12.11,13.914 -16.856,21.746 -7.67,12.658 -7.912,27.177 -7.292,41.688 0.397,9.28 -0.743,9.984 -9.675,10.853 -10.979,1.069 -21.902,2.794 -32.835,4.339 -3.541,0.501 -6.644,-2.086 -6.785,-7.101 -0.307,-10.891 -1.224,-21.959 0.199,-32.653 1.453,-10.925 4.963,-21.644 8.372,-32.172 4.803,-14.832 14.106,-26.773 24.352,-37.92 10.49,-11.414 21.044,-22.766 31.609,-34.105003 2.263,-2.428 4.695,-4.684 7.322,-7.253 z"
     id="path2" />
  <defs
     id="defs3">
    <linearGradient
       id="a"
       x1="560.771"
       x2="162.765"
       y1="222.718"
       y2="654.93701"
       gradientUnits="userSpaceOnUse"
       gradientTransform="translate(-122.04264,-91.000093)">
      <stop
         offset=".357"
         stop-color="#46B5D1"
         id="stop2" />
      <stop
         offset=".731"
         stop-color="#CE6449"
         id="stop3" />
    </linearGradient>
  </defs>
</svg>
